<svg width="36" height="52" viewBox="0 0 36 52" fill="none" xmlns="http://www.w3.org/2000/svg"><path d="M4.054 41.28q.761 0 1.358.26t.934.78q.347.519.347 1.26 0 .733-.347 1.252-.338.52-.944.79-.596.26-1.348.26H2.87v2.426H1.58V41.28zm-.067 3.437q.615 0 .992-.28.385-.279.385-.856 0-.578-.385-.848-.375-.279-.992-.279H2.87v2.263zm5.352-1.58q.924 0 1.502.444.587.442.587 1.444v3.283h-1.146v-.337q-.634.434-1.329.434-.77 0-1.203-.414-.424-.414-.424-1.146 0-.742.54-1.165.538-.434 1.415-.434h.934v-.144q0-.453-.289-.674t-.818-.221q-.742 0-1.512.413v-1.107q.327-.172.79-.27.461-.105.953-.105m-.828 3.688q0 .318.221.492.231.173.587.173.491 0 .896-.24v-1.137h-.732q-.453 0-.712.183-.26.173-.26.53m6.669-3.687q.423 0 .732.154v1.126a2.1 2.1 0 0 0-.838-.183q-.664 0-1.252.472v3.601h-1.213v-5.074h1.126v.549q.299-.309.665-.472.375-.173.78-.173m4.572 1.107h-1.406v2.378q0 .713.751.713.28 0 .655-.096v1.059q-.395.106-.722.106-.972 0-1.435-.453-.462-.462-.462-1.232v-2.475H16.2v-1.011h.934v-1.271h1.213v1.271h1.406zm3.715-1.098q.79 0 1.261.501.472.491.472 1.396v3.264h-1.213v-3.167q0-.453-.241-.684a.8.8 0 0 0-.607-.24q-.578 0-1.155.49v3.601h-1.213v-5.074h1.126v.53q.318-.29.723-.453t.847-.164m7.22 2.215q0 .27-.144.414a.53.53 0 0 1-.394.144H27.23q.048.732.51 1.088.473.357 1.194.357.713 0 1.358-.28v1.06q-.704.26-1.473.26-.761 0-1.387-.299a2.36 2.36 0 0 1-.991-.905q-.366-.607-.366-1.483 0-.837.346-1.415.347-.588.896-.876a2.54 2.54 0 0 1 1.184-.29q.597 0 1.098.26a1.9 1.9 0 0 1 .79.771q.297.501.298 1.194m-2.204-1.29q-.453 0-.77.279-.309.27-.424.78h2.291q-.037-.491-.346-.77a1.06 1.06 0 0 0-.751-.29m5.776-.934q.423 0 .731.154v1.126a2.05 2.05 0 0 0-.837-.183q-.664 0-1.252.472v3.601h-1.213v-5.074h1.126v.549q.299-.309.665-.472.375-.173.78-.173" fill="#000"/><path d="M2.447 10.859V1.782h9.077M2.447 23.34v9.077h9.077M33.65 10.86V1.781h-9.077M33.65 23.34v9.077h-9.077" stroke="#8577E4" stroke-width="2.837" stroke-linecap="round" stroke-linejoin="round"/><path fill="#8577E4" d="M8.363 8.089h7.659v7.659H8.363z"/><path fill="#40C1D3" d="M20.527 8.089h7.659v7.659h-7.659z"/><path fill="#E79FC9" d="M8.363 18.451h7.659v7.659H8.363z"/><path fill="#8577E4" d="M20.527 18.451h4.055v1.802h-4.055zm4.053 1.802h3.604v1.802H24.58zm-2.025 1.802h2.027v2.027h-2.027zm-2.028 2.027h2.027v2.027h-2.027z"/></svg>