<svg width="200" height="36" viewBox="0 0 200 36" fill="none" xmlns="http://www.w3.org/2000/svg">
<path d="M18.0033 36.0066C27.9463 36.0066 36.0066 27.9463 36.0066 18.0033C36.0066 8.06036 27.9463 0 18.0033 0C8.06036 0 0 8.06036 0 18.0033C0 27.9463 8.06036 36.0066 18.0033 36.0066Z" fill="white"/>
<path d="M26.149 13.2761C26.149 12.579 25.5847 12.0148 24.8877 12.0148H22.4846L16.9548 5.63527C16.4436 5.04446 15.6271 4.80547 14.877 5.03118L12.9585 5.60208C12.6664 5.68838 12.5735 6.06013 12.7992 6.27256L18.8202 12.0214H9.61273C9.34719 12.0214 9.13477 12.2338 9.13477 12.4994V13.5416C9.13477 14.2386 9.69903 14.8029 10.3961 14.8029H11.8034V19.6622C11.8034 23.2868 13.7352 25.4575 16.9747 25.4575C17.9572 25.4575 18.8069 25.3447 19.7761 24.9596V28.1992C19.7761 29.0754 20.4864 29.7924 21.3693 29.7924H22.7634C23.0953 29.7924 23.3608 29.5268 23.3608 29.1949V14.7963H25.671C25.9365 14.7963 26.149 14.5838 26.149 14.3183V13.2761V13.2761ZM19.7761 21.9259C19.2118 22.1781 18.3887 22.3242 17.778 22.3242C16.1316 22.3242 15.3948 21.501 15.3948 19.6556V14.7963H19.7761V21.9259Z" fill="#5F249F"/>
<path d="M91.1388 28.2858V21.7469C91.1388 20.1006 90.4948 19.3704 89.0477 19.3704C88.4303 19.3704 87.7399 19.4501 87.2885 19.6094V29.1886C87.2885 29.5205 87.023 29.786 86.691 29.786H84.3875C84.0556 29.786 83.7901 29.5205 83.7901 29.1886V17.9697C83.7901 17.578 84.0556 17.2395 84.3676 17.1266C85.8546 16.5956 87.4213 16.2769 89.0477 16.2769C92.6722 16.2769 94.6638 18.222 94.6638 21.7536V29.1886C94.6638 29.5205 94.3982 29.786 94.0663 29.786H92.639C91.8092 29.786 91.1388 29.1156 91.1388 28.2858ZM100.227 24.3426H100.147V24.4222V25.2653C100.147 26.4868 100.924 27.1904 102.285 27.1904C103.294 27.1904 104.25 26.9382 105.206 26.4071C105.259 26.3739 105.365 26.3341 105.524 26.3341C105.71 26.3341 105.863 26.4403 105.956 26.5465C106.049 26.6527 106.307 26.9514 106.307 26.9514C106.56 27.2435 106.712 27.6153 106.699 27.9937C106.679 28.5115 106.4 28.9629 105.962 29.1952C104.834 29.7993 103.592 30.0914 102.165 30.0914C100.579 30.0914 99.2177 29.6665 98.2352 28.8699C97.1797 28.0069 96.6221 26.739 96.6221 25.1923V21.2889C96.6221 18.1423 98.6667 16.2703 102.099 16.2703C105.444 16.2703 107.356 18.1025 107.356 21.2889V23.7385C107.356 24.0704 107.091 24.3359 106.759 24.3359H100.227V24.3426ZM100.147 22.132H100.227H103.918H103.997V22.0523V21.1229C103.997 19.8683 103.294 19.1513 102.072 19.1513C100.831 19.1513 100.147 19.855 100.147 21.1229V22.0523V22.132ZM125.851 24.3426H125.771V24.4222V25.2653C125.771 26.4868 126.548 27.1904 127.909 27.1904C128.918 27.1904 129.874 26.9382 130.83 26.4071C130.883 26.3739 130.989 26.3341 131.148 26.3341C131.334 26.3341 131.487 26.4403 131.58 26.5465C131.673 26.6527 131.932 26.9514 131.932 26.9514C132.184 27.2435 132.337 27.6153 132.323 27.9937C132.303 28.5115 132.025 28.9629 131.586 29.1952C130.458 29.7993 129.217 30.0914 127.789 30.0914C126.203 30.0914 124.842 29.6665 123.859 28.8699C122.804 28.0069 122.246 26.739 122.246 25.1923V21.2889C122.246 18.1423 124.291 16.2703 127.723 16.2703C131.069 16.2703 132.981 18.1025 132.981 21.2889V23.7385C132.981 24.0704 132.715 24.3359 132.383 24.3359H125.851V24.3426ZM125.771 22.132H125.851H129.542H129.622V22.0523V21.1229C129.622 19.8683 128.918 19.1513 127.696 19.1513C126.455 19.1513 125.771 19.855 125.771 21.1229V22.0523V22.132ZM66.5435 29.786H67.9708C68.3027 29.786 68.5682 29.5205 68.5682 29.1886V21.7204C68.5682 18.3083 66.7427 16.2703 63.689 16.2703C62.7663 16.2703 61.7772 16.4296 61.1863 16.6885V13.0042C61.1863 12.1744 60.5159 11.5039 59.6861 11.5039H58.2854C57.9534 11.5039 57.6879 11.7694 57.6879 12.1014V29.1819C57.6879 29.5139 57.9534 29.7794 58.2854 29.7794H60.5889C60.9208 29.7794 61.1863 29.5139 61.1863 29.1819V19.6824C61.6643 19.4633 62.368 19.3438 62.919 19.3438C64.3794 19.3438 65.0366 20.0807 65.0366 21.727V28.2858C65.0432 29.1156 65.7137 29.786 66.5435 29.786ZM81.7388 21.342V25.0993C81.7388 28.1795 79.5946 30.098 76.1426 30.098C72.6774 30.098 70.5266 28.1862 70.5266 25.0993V21.342C70.5266 18.2153 72.6774 16.2703 76.1426 16.2703C79.5946 16.2703 81.7388 18.2153 81.7388 21.342ZM78.1873 21.342C78.1873 20.0873 77.4438 19.3704 76.1426 19.3704C74.8415 19.3704 74.098 20.0873 74.098 21.342V25.0993C74.098 26.3407 74.8216 27.0245 76.1426 27.0245C77.4637 27.0245 78.1873 26.3407 78.1873 25.0993V21.342ZM55.7362 19.6027C55.7296 22.8622 53.2999 25.0529 50.1069 25.0529C49.297 25.0529 48.6066 24.94 47.9295 24.6745V29.1819C47.9295 29.5139 47.6639 29.7794 47.332 29.7794H44.9754C44.6435 29.7794 44.3779 29.5139 44.3779 29.1819V13.1768C44.3779 12.732 44.6899 12.4266 44.982 12.3271C46.469 11.8225 48.0224 11.5105 49.6023 11.5105C53.2136 11.5105 55.7495 13.7079 55.7495 17.1133L55.7362 19.6027ZM52.1316 17.0403C52.1316 15.4537 51.0628 14.6505 49.4895 14.6505C48.6199 14.6505 47.9295 14.9293 47.9295 14.9293V21.5611C48.4871 21.8664 48.8788 21.966 49.516 21.966C51.0694 21.966 52.1316 21.0964 52.1316 19.5828V17.0403ZM120.786 19.6027C120.779 22.8622 118.35 25.0529 115.156 25.0529C114.347 25.0529 113.656 24.94 112.979 24.6745V29.1819C112.979 29.5139 112.714 29.7794 112.382 29.7794H110.025C109.693 29.7794 109.428 29.5139 109.428 29.1819V13.1768C109.428 12.732 109.74 12.4266 110.032 12.3271C111.519 11.8225 113.072 11.5105 114.652 11.5105C118.263 11.5105 120.799 13.7079 120.799 17.1133L120.786 19.6027ZM117.181 17.0403C117.181 15.4537 116.112 14.6505 114.539 14.6505C113.669 14.6505 112.979 14.9293 112.979 14.9293V21.5611C113.537 21.8664 113.928 21.966 114.566 21.966C116.119 21.966 117.181 21.0964 117.181 19.5828V17.0403Z" fill="white"/>
<path d="M194.684 16.0918C191.258 16.0918 189.207 17.9705 189.207 21.1104V25.0138C189.207 26.5539 189.765 27.8285 190.82 28.6915C191.803 29.4947 193.164 29.9129 194.75 29.9129C196.177 29.9129 197.419 29.6208 198.547 29.0167C198.985 28.7844 199.264 28.333 199.284 27.8152C199.297 27.4302 199.145 27.0584 198.892 26.773C198.892 26.773 198.634 26.4676 198.541 26.368C198.448 26.2618 198.295 26.1556 198.109 26.1556C197.95 26.1556 197.844 26.1954 197.79 26.2286C196.835 26.7531 195.879 27.012 194.87 27.012C193.509 27.012 192.732 26.3083 192.732 25.0868V24.2437V24.1641H192.812H199.344C199.676 24.1641 199.941 23.8985 199.941 23.5666V21.1171C199.941 17.924 198.029 16.0918 194.684 16.0918ZM196.582 21.8738V21.9535H196.503H192.812H192.732V21.8738V20.9445C192.732 19.6699 193.416 18.9729 194.657 18.9729C195.879 18.9729 196.582 19.6898 196.582 20.9445V21.8738Z" fill="white"/>
<path d="M174.032 16.6506V14.6724V12.1365C174.032 11.8046 173.766 11.5391 173.435 11.5391H171.078C170.746 11.5391 170.48 11.8046 170.48 12.1365V28.1417C170.48 28.5864 170.792 28.8918 171.085 28.9914C172.346 29.4229 173.667 29.7083 175.001 29.7814C175.307 29.8013 175.559 29.549 175.559 29.2436V27.2189C175.559 26.9269 175.34 26.668 175.054 26.6348C174.464 26.5617 174.039 26.3958 174.039 26.3958V25.3137V19.764V16.6506H174.032Z" fill="white"/>
<path d="M149.549 11.3789C147.969 11.3789 146.415 11.6843 144.928 12.1954C144.636 12.295 144.324 12.6004 144.324 13.0451V29.0503C144.324 29.3822 144.59 29.6478 144.922 29.6478H147.278C147.61 29.6478 147.876 29.3822 147.876 29.0503V24.5428C148.553 24.8084 149.243 24.9212 150.053 24.9212C153.246 24.9212 155.682 22.7306 155.682 19.4711V16.9817C155.696 13.5762 153.16 11.3789 149.549 11.3789ZM152.084 19.4446C152.084 20.9581 151.022 21.8277 149.469 21.8277C148.832 21.8277 148.44 21.7282 147.882 21.4228V14.791C147.882 14.791 148.573 14.5122 149.442 14.5122C151.016 14.5122 152.084 15.3221 152.084 16.902V19.4446Z" fill="white"/>
<path d="M167.925 16.291H165.621C165.289 16.291 165.024 16.5566 165.024 16.8885V26.4677C164.579 26.6204 163.882 26.7067 163.265 26.7067C161.817 26.7067 161.173 25.9698 161.173 24.3301V17.7913C161.173 16.9615 160.503 16.291 159.673 16.291H158.246C157.914 16.291 157.648 16.5566 157.648 16.8885V24.3235C157.648 27.8551 159.647 29.8001 163.265 29.8001C164.891 29.8001 166.458 29.4749 167.945 28.9504C168.263 28.8376 168.522 28.499 168.522 28.1074V16.8885C168.522 16.5632 168.257 16.291 167.925 16.291Z" fill="white"/>
<path d="M182.07 29.9192C180.112 29.9192 178.658 29.3616 177.025 28.1003C176.853 27.9675 176.833 27.8215 176.945 27.6555L178.247 25.8565C178.359 25.7105 178.532 25.6706 178.705 25.8034C179.853 26.5801 181.028 27.0647 182.276 27.0846C183.524 27.0846 184.407 26.673 184.407 25.8565C184.407 24.9072 183.259 24.6151 181.931 24.3496C179.993 23.9579 177.118 23.0286 177.118 20.0214C177.118 17.439 179.402 16.1777 182.316 16.1777C184.002 16.1777 185.363 16.5893 186.956 17.605C187.149 17.7178 187.189 17.8838 187.049 18.0498L185.821 19.8288C185.708 19.9948 185.536 20.0346 185.343 19.9218C184.347 19.3111 183.232 18.9924 182.157 18.9924C180.796 18.9924 180.258 19.4372 180.258 20.1077C180.258 20.9242 181.061 21.1499 182.694 21.5216C185.363 22.1523 187.567 23.0086 187.567 25.7569C187.574 28.3592 185.423 29.9192 182.07 29.9192Z" fill="white"/>
</svg>
