<svg xmlns="http://www.w3.org/2000/svg" width="1673" height="1673" fill="none" viewBox="0 0 1673 1673"><path stroke="url(#prefix__a)" stroke-opacity=".7" stroke-width="1.084" d="M829.102 1288c235.128 0 425.728-190.92 425.728-426.432 0-235.512-190.6-426.431-425.728-426.431-235.125 0-425.733 190.919-425.733 426.431 0 235.512 190.608 426.432 425.733 426.432Z" opacity=".8"/><path stroke="url(#prefix__b)" stroke-opacity=".7" stroke-width="1.084" d="M829.101 1174.79c174.919 0 316.719-142.42 316.719-318.113s-141.8-318.115-316.719-318.115c-174.917 0-316.718 142.422-316.718 318.115s141.802 318.113 316.718 318.113Z" opacity=".7"/><circle cx="551.361" cy="551.361" r="550.819" stroke="url(#prefix__c)" stroke-opacity=".7" stroke-width="1.084" transform="matrix(1 0 0 -1 278.438 1417.12)"/><circle cx="678.6" cy="678.6" r="678.058" stroke="url(#prefix__d)" stroke-opacity=".7" stroke-width="1.084" transform="matrix(1 0 0 -1 151.2 1537.2)"/><circle cx="836.4" cy="836.4" r="835.858" stroke="url(#prefix__e)" stroke-opacity=".7" stroke-width="1.084" transform="matrix(1 0 0 -1 0 1672.8)"/><defs><linearGradient id="prefix__a" x1="829.101" x2="829.101" y1="1288.54" y2="434.595" gradientUnits="userSpaceOnUse"><stop offset=".145" stop-color="#BCA4E1"/><stop offset="1" stop-color="#443072"/></linearGradient><linearGradient id="prefix__b" x1="829.101" x2="829.101" y1="1175.33" y2="538.019" gradientUnits="userSpaceOnUse"><stop offset=".145" stop-color="#BCA4E1"/><stop offset="1" stop-color="#443072"/></linearGradient><linearGradient id="prefix__c" x1="551.361" x2="551.361" y1="0" y2="1102.72" gradientUnits="userSpaceOnUse"><stop offset=".145" stop-color="#BCA4E1"/><stop offset="1" stop-color="#443072"/></linearGradient><linearGradient id="prefix__d" x1="678.6" x2="678.6" y1="0" y2="1357.2" gradientUnits="userSpaceOnUse"><stop offset=".145" stop-color="#BCA4E1"/><stop offset="1" stop-color="#443072"/></linearGradient><linearGradient id="prefix__e" x1="836.4" x2="836.4" y1="0" y2="1672.8" gradientUnits="userSpaceOnUse"><stop offset=".145" stop-color="#BCA4E1"/><stop offset="1" stop-color="#443072"/></linearGradient></defs></svg>