<svg width="54" height="54" viewBox="0 0 54 54" fill="none" xmlns="http://www.w3.org/2000/svg"><g clip-path="url(#a)"><path d="M72.057 12.299h-52.96l.034-1.154a3.435 3.435 0 0 1 3.428-3.316h49.643l-.156 4.458z" fill="#FBBFE4"/><path d="M95.299 12.299h-52.96l.035-1.154A3.435 3.435 0 0 1 45.8 7.829h49.644l-.157 4.458z" fill="#DA68B0"/><path d="M73.157 44.246H3.025A3.03 3.03 0 0 1 .002 41.12l.168-4.873h72.975v7.998z" fill="#461B76"/><path d="M19.616 47.291c2.677 0 4.85-2.923 4.85-6.53s-2.173-6.53-4.85-6.53-4.85 2.923-4.85 6.53c0 3.606 2.173 6.53 4.85 6.53m25.558 0c2.677 0 4.85-2.923 4.85-6.53s-2.173-6.53-4.85-6.53-4.85 2.923-4.85 6.53c0 3.606 2.173 6.53 4.85 6.53" fill="#461B76"/><path d="M21.733 47.291c2.677 0 4.85-2.923 4.85-6.53s-2.173-6.53-4.85-6.53-4.85 2.923-4.85 6.53c0 3.606 2.173 6.53 4.85 6.53" fill="#461B76"/><path d="M73.154 10.52H13.586v30.243h59.568z" fill="#DA68B0"/><path d="M13.599 30.39v10.373H3.327a3.286 3.286 0 0 1-3.282-3.405L.28 30.39l.47-13.52c.034-.93.258-1.803.64-2.599a6.58 6.58 0 0 1 5.936-3.752h6.261v19.87z" fill="#FBBFE4"/><path d="M54.965 40.761H42.867l.493-3.024a5.61 5.61 0 0 1 5.545-4.716 5.61 5.61 0 0 1 5.544 4.716l.493 3.024h.022" fill="#461B76"/><path d="M30.508 10.52c-3.54 0-6.44 2.8-6.575 6.34l-.717 20.498a3.277 3.277 0 0 0 3.282 3.394H10.223V10.52z" fill="#FBBFE4"/><path d="m20.858 17.236-.448 12.68c0 .258-.213.46-.47.46l-19.659.01.47-13.52a6.5 6.5 0 0 1 .64-2.598h16.6a2.874 2.874 0 0 1 2.867 2.968" fill="#5F259F"/><mask id="b" style="mask-type:luminance" maskUnits="userSpaceOnUse" x="0" y="14" width="21" height="17"><path d="m20.854 17.236-.448 12.68c0 .258-.213.46-.47.46l-19.659.01.47-13.52c.034-.93.258-1.803.64-2.598h16.6a2.875 2.875 0 0 1 2.867 2.968" fill="#fff"/></mask><g mask="url(#b)"><path d="M-3.923 26.883c12.063 0 21.842-6.52 21.842-14.562S8.139-2.24-3.923-2.24c-12.063 0-21.843 6.519-21.843 14.561s9.78 14.562 21.843 14.562" fill="#8B54C7"/></g><path d="M73.155 30.39H29.65a2.196 2.196 0 0 1-2.195-2.273l.358-10.25a3.71 3.71 0 0 1 3.719-3.573h41.635v16.108z" fill="#461B76"/><mask id="c" style="mask-type:alpha" maskUnits="userSpaceOnUse" x="27" y="14" width="47" height="17"><path d="M73.152 30.39H29.646a2.196 2.196 0 0 1-2.195-2.273l.358-10.25a3.71 3.71 0 0 1 3.719-3.572h41.635v16.107z" fill="#461B76"/></mask><g mask="url(#c)"><path d="M74.759 26.333C79.746 15.35 77.853 3.75 70.53.425S53.228 3.309 48.241 14.293s-3.094 22.584 4.229 25.909c7.322 3.324 17.302-2.885 22.289-13.869" fill="#7A3E94"/></g><path d="M45.172 47.293h3.853l-3.371-3.473z" fill="#461B76"/><path d="M49.03 47.291c2.677 0 4.85-2.923 4.85-6.53s-2.173-6.53-4.85-6.53-4.85 2.923-4.85 6.53c0 3.606 2.173 6.53 4.85 6.53" fill="#461B76"/><path d="M49.027 43.258c1.03 0 1.86-1.12 1.86-2.498s-.83-2.498-1.86-2.498-1.859 1.12-1.859 2.498.829 2.498 1.86 2.498" fill="#B05BA8"/><path d="M35.339 21.663h3.808c1.221 0 2.24.997 2.24 2.24v16.869h-8.266v-16.87c0-1.22.997-2.24 2.24-2.24h-.022" fill="#DA68B0"/><path d="M6.433 35.175a1.99 1.99 0 0 1-1.982 1.915 1.84 1.84 0 0 1-1.848-1.915 1.99 1.99 0 0 1 1.982-1.916c1.064 0 1.882.863 1.848 1.916m13.766 0a1.99 1.99 0 0 1-1.983 1.915 1.84 1.84 0 0 1-1.848-1.915 1.99 1.99 0 0 1 1.983-1.916c1.064 0 1.882.863 1.848 1.916" fill="#fff"/><path d="M21.73 47.291H19.6l-.515-4.223z" fill="#461B76"/><path d="M14.45 38.79H8.269a.96.96 0 0 1-.975-.997c.023-.56.482-.997 1.042-.997h6.183a.96.96 0 0 1 .974.997c-.022.56-.481.997-1.041.997" fill="#8F70D7"/></g><defs><clipPath id="a"><path fill="#fff" d="M0 0h53.766v53.766H0z"/></clipPath></defs></svg>