<svg width="31" height="30" viewBox="0 0 31 30" fill="none" xmlns="http://www.w3.org/2000/svg">
<path d="M28.6821 13.0488C29.7867 13.0488 30.6821 13.9443 30.6821 15.0488C30.6821 16.1534 29.7867 17.0488 28.6821 17.0488L28.6821 13.0488ZM1.49018 16.463C0.709133 15.682 0.709133 14.4157 1.49018 13.6346L14.2181 0.906691C14.9992 0.125643 16.2655 0.125643 17.0465 0.906691C17.8276 1.68774 17.8276 2.95407 17.0465 3.73512L5.73282 15.0488L17.0465 26.3625C17.8276 27.1436 17.8276 28.4099 17.0465 29.191C16.2655 29.972 14.9992 29.972 14.2181 29.191L1.49018 16.463ZM28.6821 17.0488L2.9044 17.0488L2.9044 13.0488L28.6821 13.0488L28.6821 17.0488Z" fill="#A5A1B8"/>
</svg>
